<?xml version="1.0" encoding="utf-8"?>
<!-- Generator: Adobe Illustrator 23.0.1, SVG Export Plug-In . SVG Version: 6.00 Build 0)  -->
<svg version="1.1" id="Слой_2" xmlns="http://www.w3.org/2000/svg" xmlns:xlink="http://www.w3.org/1999/xlink" x="0px" y="0px"
	 viewBox="0 0 288 288" style="enable-background:new 0 0 288 288;" xml:space="preserve">
<style type="text/css">
	.st0{fill:#FFFFFF;}
</style>
<g>
	<g>
		<path class="st0" d="M83.81,160.87h5.46c2.13,0,2.94,0.73,2.94,2.53c0,1.73-0.81,2.46-2.94,2.46h-5.46V160.87z M75.36,179.06h8.45
			v-7.39h9.05c5.99,0,8.15-3.53,8.15-8.09c0-5.29-2.22-8.29-8.21-8.29H75.36V179.06z"/>
		<path class="st0" d="M103.81,155.28h22.75v5.8h-14.3v3.2h13.28v5.79h-13.28v3.2h14.3v5.79h-22.75V155.28z"/>
		<path class="st0" d="M138.55,160.87H144c2.13,0,2.94,0.73,2.94,2.53c0,1.73-0.81,2.46-2.94,2.46h-5.46V160.87z M130.09,179.06
			h8.45v-7.39h9.05c5.99,0,8.15-3.53,8.15-8.09c0-5.29-2.22-8.29-8.21-8.29h-17.45V179.06z"/>
		<path class="st0" d="M163.93,168.97c-4.14-0.7-5.85-3.36-5.85-6.69c0-6.16,5.43-7.83,12.38-7.83c9.53,0,13.46,2.76,13.76,7.79
			h-9.83c0-0.96-0.51-1.56-1.29-1.9c-0.75-0.37-1.71-0.5-2.64-0.5c-2.52,0-3.39,0.7-3.39,1.7c0,0.67,0.27,1.1,1.11,1.23l10.1,1.67
			c4.26,0.7,6.89,2.9,6.89,6.93c0,5.79-4.26,8.53-13.76,8.53c-6.5,0-13.61-1-13.64-7.99h10.19c0.03,0.8,0.3,1.33,0.9,1.7
			c0.63,0.33,1.56,0.5,2.88,0.5c2.64,0,3.36-0.8,3.36-1.93c0-0.7-0.39-1.4-1.53-1.6L163.93,168.97z"/>
		<path class="st0" d="M187.94,155.28h8.45v23.78h-8.45V155.28z"/>
		<path class="st0" d="M227.72,169.8c-0.54,3.13-1.5,5.66-3.6,7.39c-2.07,1.73-5.3,2.7-10.46,2.7c-5.12,0-14.63-0.4-14.63-12.72
			c0-12.32,9.5-12.72,14.63-12.72c5.1,0,12.95,0.73,14.06,10.16h-9.53c-0.24-1.7-1.26-4.16-4.53-4.16c-3.45,0-5.63,1.9-5.63,6.73
			c0,4.83,2.13,6.73,5.22,6.73c2.67,0,4.26-1.23,4.94-4.1H227.72z"/>
		<path class="st0" d="M238.78,167.17c0-4.83,2.19-6.73,5.63-6.73c3.45,0,5.63,1.9,5.63,6.73c0,4.83-2.19,6.73-5.63,6.73
			C240.97,173.9,238.78,172,238.78,167.17z M229.78,167.17c0,12.32,9.5,12.72,14.63,12.72s14.63-0.4,14.63-12.72
			c0-12.32-9.5-12.72-14.63-12.72S229.78,154.85,229.78,167.17z"/>
	</g>
	<path class="st0" d="M62.59,155.52c0.55-11.41-9.3-24.25-22.72-25.84l0.02-0.16c13.23,0,23.38,12.24,23.38,21.9
		c-0.01,2.01-0.17,3.25-0.46,4.16L62.59,155.52z M61.79,156.97c-0.88,1.07-1.99,2.16-3.28,3.19c-2.38-13.72-12.47-25.71-19.6-29.21
		l-0.15,0.11c7.17,5.88,15.72,17.3,19.05,29.64c-1.59,1.17-3.43,2.25-5.46,3.13c-6.77-7.71-13.08-22.58-15.11-32.02l-0.21,0.06
		c0.05,9.16,6.55,24.71,14.49,32.3c-1.76,0.7-3.66,1.24-5.64,1.56c-7.61-3.01-13.02-12.66-13.02-22.54c0-6.45,1.97-10.44,2.35-11.26
		l-0.16-0.06c-0.46,0.7-3.34,4.69-3.34,11.65c0,11.17,5.51,19.71,12.83,22.4c-2.5,0.27-5.14,0.19-7.84-0.37l-0.05,0.17
		c0.78,0.29,3.44,1.4,7.49,1.4c9.17,0,15.36-5.69,17.85-10.01L61.79,156.97z"/>
	<path class="st0" d="M43.2,125.48c-6.95,0-15.09,5.01-15.09,9.59c0,1.77,1.62,3.27,4.98,3.27c7.79,0,15.03-5.35,15.03-9.51
		C48.11,126.65,46.01,125.48,43.2,125.48z M45.97,128.71c0,3.51-6.74,7.79-12.37,7.79c-2.49,0-3.83-0.98-3.83-2.6
		c0-3.56,6.81-7.77,12.1-7.77C45.31,126.13,45.97,127.88,45.97,128.71z"/>
	<path class="st0" d="M25.33,137.2c-0.19,0.34-0.98,1.87-0.98,3.44c0,2.91,2.94,5.61,8.35,5.61c10.4,0,22.42-7.65,22.42-14.76
		c0-3.19-3.02-4.92-5.12-5.28l-0.04,0.12c0.65,0.21,3.04,1.32,3.04,4.16c0,5.66-10.61,13.37-21.18,13.37c-4.05,0-6.6-2-6.6-4.91
		c0-0.92,0.19-1.52,0.24-1.7L25.33,137.2z"/>
	<path class="st0" d="M59.42,132.02c0.28,0.22,2,1.64,2,4.34c0,9.2-14.43,18.25-27.18,18.25c-7.61,0-11.08-3.75-10.92-7.09h0.14
		c0.3,1.73,2.77,4.83,9.42,4.83c12.77,0,27.03-9.36,27.03-17.57c0-1.41-0.38-2.29-0.6-2.67L59.42,132.02z"/>
	<path class="st0" d="M64.24,140.61c0.06,0.2,0.37,1.08,0.37,2.46c0,10.24-14.6,19-27.3,19c-6.54,0-9.95-3.17-10.67-4.46l0.12-0.09
		c1.81,1.58,5.37,2.78,9.53,2.78c11.22,0,27.95-8.53,27.8-19.65L64.24,140.61z"/>
</g>
</svg>
